<?xml version="1.0" encoding="UTF-8" standalone="no"?>
<!DOCTYPE svg PUBLIC "-//W3C//DTD SVG 1.1//EN" "http://www.w3.org/Graphics/SVG/1.1/DTD/svg11.dtd">
<svg width="100%" height="100%" viewBox="0 0 591 591" version="1.1" xmlns="http://www.w3.org/2000/svg" xmlns:xlink="http://www.w3.org/1999/xlink" xml:space="preserve" xmlns:serif="http://www.serif.com/" style="fill-rule:evenodd;clip-rule:evenodd;stroke-linejoin:round;stroke-miterlimit:2;">
    <g id="vectorseek.com-Don-t-Panic---Hitchhiker-s-Guide-To-The-Galaxy-Logo-Vector.svg" serif:id="vectorseek.com-Don&apos;t Panic - Hitchhiker&apos;s Guide To The Galaxy Logo Vector.svg" transform="matrix(0.976086,0,0,0.976086,287.475,250.475)">
        <g transform="matrix(1,0,0,1,-250,-250)">
            <g id="watermark_1_">
                <g opacity="0.61">
                    <path d="M156.756,478.878L158.363,478.878C159.626,478.878 160.477,479.69 160.477,480.852C160.477,482.013 159.626,482.825 158.363,482.825L156.756,482.825L156.756,478.878ZM158.34,482.464C159.389,482.464 160.065,481.799 160.065,480.852C160.065,479.905 159.388,479.239 158.34,479.239L157.173,479.239L157.173,482.464L158.34,482.464Z" style="fill:white;fill-rule:nonzero;"/>
                    <path d="M165.139,480.851C165.139,479.701 166.018,478.844 167.214,478.844C168.398,478.844 169.283,479.695 169.283,480.851C169.283,482.007 168.398,482.858 167.214,482.858C166.019,482.858 165.139,482.002 165.139,480.851ZM168.866,480.851C168.866,479.909 168.161,479.216 167.214,479.216C166.261,479.216 165.551,479.909 165.551,480.851C165.551,481.792 166.261,482.486 167.214,482.486C168.162,482.486 168.866,481.793 168.866,480.851Z" style="fill:white;fill-rule:nonzero;"/>
                    <path d="M179.596,478.878L178.265,482.825L177.825,482.825L176.669,479.459L175.508,482.825L175.074,482.825L173.743,478.878L174.172,478.878L175.311,482.272L176.489,478.878L176.878,478.878L178.039,482.289L179.195,478.878L179.596,478.878Z" style="fill:white;fill-rule:nonzero;"/>
                    <path d="M187.731,478.878L187.731,482.825L187.387,482.825L184.85,479.623L184.85,482.825L184.433,482.825L184.433,478.878L184.777,478.878L187.32,482.081L187.32,478.878L187.731,478.878Z" style="fill:white;fill-rule:nonzero;"/>
                    <path d="M193.093,478.878L193.51,478.878L193.51,482.464L195.72,482.464L195.72,482.825L193.093,482.825L193.093,478.878Z" style="fill:white;fill-rule:nonzero;"/>
                    <path d="M200.061,480.851C200.061,479.701 200.94,478.844 202.136,478.844C203.32,478.844 204.205,479.695 204.205,480.851C204.205,482.007 203.32,482.858 202.136,482.858C200.941,482.858 200.061,482.002 200.061,480.851ZM203.788,480.851C203.788,479.909 203.083,479.216 202.136,479.216C201.183,479.216 200.473,479.909 200.473,480.851C200.473,481.792 201.183,482.486 202.136,482.486C203.083,482.486 203.788,481.793 203.788,480.851Z" style="fill:white;fill-rule:nonzero;"/>
                    <path d="M211.636,481.77L209.437,481.77L208.963,482.824L208.529,482.824L210.333,478.877L210.745,478.877L212.549,482.824L212.109,482.824L211.636,481.77ZM211.484,481.432L210.537,479.312L209.59,481.432L211.484,481.432Z" style="fill:white;fill-rule:nonzero;"/>
                    <path d="M217.28,478.878L218.887,478.878C220.15,478.878 221.001,479.69 221.001,480.852C221.001,482.013 220.15,482.825 218.887,482.825L217.28,482.825L217.28,478.878ZM218.864,482.464C219.913,482.464 220.589,481.799 220.589,480.852C220.589,479.905 219.912,479.239 218.864,479.239L217.697,479.239L217.697,482.464L218.864,482.464Z" style="fill:white;fill-rule:nonzero;"/>
                    <path d="M234.041,481.77L231.842,481.77L231.368,482.824L230.934,482.824L232.738,478.877L233.15,478.877L234.954,482.824L234.514,482.824L234.041,481.77ZM233.889,481.432L232.942,479.312L231.995,481.432L233.889,481.432Z" style="fill:white;fill-rule:nonzero;"/>
                    <path d="M239.685,478.878L240.102,478.878L240.102,482.464L242.312,482.464L242.312,482.825L239.685,482.825L239.685,478.878Z" style="fill:white;fill-rule:nonzero;"/>
                    <path d="M247.082,478.878L247.499,478.878L247.499,482.464L249.709,482.464L249.709,482.825L247.082,482.825L247.082,478.878Z" style="fill:white;fill-rule:nonzero;"/>
                    <path d="M260.449,479.239L260.449,480.79L262.49,480.79L262.49,481.151L260.449,481.151L260.449,482.826L260.032,482.826L260.032,478.879L262.738,478.879L262.738,479.24L260.449,479.24L260.449,479.239Z" style="fill:white;fill-rule:nonzero;"/>
                    <rect x="267.678" y="478.878" width="0.417" height="3.947" style="fill:white;fill-rule:nonzero;"/>
                    <path d="M273.456,478.878L273.873,478.878L273.873,482.464L276.083,482.464L276.083,482.825L273.456,482.825L273.456,478.878Z" style="fill:white;fill-rule:nonzero;"/>
                    <path d="M283.644,482.464L283.644,482.825L280.853,482.825L280.853,478.878L283.559,478.878L283.559,479.239L281.27,479.239L281.27,480.643L283.311,480.643L283.311,480.998L281.27,480.998L281.27,482.464L283.644,482.464Z" style="fill:white;fill-rule:nonzero;"/>
                    <path d="M294.672,479.239L294.672,480.79L296.713,480.79L296.713,481.151L294.672,481.151L294.672,482.826L294.255,482.826L294.255,478.879L296.961,478.879L296.961,479.24L294.672,479.24L294.672,479.239Z" style="fill:white;fill-rule:nonzero;"/>
                    <path d="M301.5,480.851C301.5,479.701 302.379,478.844 303.575,478.844C304.759,478.844 305.644,479.695 305.644,480.851C305.644,482.007 304.759,482.858 303.575,482.858C302.379,482.858 301.5,482.002 301.5,480.851ZM305.226,480.851C305.226,479.909 304.521,479.216 303.574,479.216C302.621,479.216 301.911,479.909 301.911,480.851C301.911,481.792 302.621,482.486 303.574,482.486C304.522,482.486 305.226,481.793 305.226,480.851Z" style="fill:white;fill-rule:nonzero;"/>
                    <path d="M313.351,482.825L312.449,481.556C312.347,481.567 312.246,481.573 312.133,481.573L311.073,481.573L311.073,482.825L310.656,482.825L310.656,478.878L312.133,478.878C313.137,478.878 313.746,479.385 313.746,480.231C313.746,480.851 313.419,481.285 312.844,481.471L313.808,482.824L313.351,482.824L313.351,482.825ZM313.328,480.231C313.328,479.599 312.911,479.239 312.121,479.239L311.073,479.239L311.073,481.218L312.121,481.218C312.911,481.218 313.328,480.851 313.328,480.231Z" style="fill:white;fill-rule:nonzero;"/>
                    <path d="M322.907,478.877L322.907,482.825L322.507,482.825L322.507,479.667L320.956,482.323L320.759,482.323L319.208,479.684L319.208,482.824L318.808,482.824L318.808,478.877L319.152,478.877L320.866,481.803L322.563,478.877L322.907,478.877Z" style="fill:white;fill-rule:nonzero;"/>
                    <path d="M330.744,481.77L328.545,481.77L328.072,482.824L327.638,482.824L329.442,478.877L329.853,478.877L331.657,482.824L331.217,482.824L330.744,481.77ZM330.592,481.432L329.645,479.312L328.698,481.432L330.592,481.432Z" style="fill:white;fill-rule:nonzero;"/>
                    <path d="M336.958,479.239L335.57,479.239L335.57,478.878L338.762,478.878L338.762,479.239L337.375,479.239L337.375,482.825L336.958,482.825L336.958,479.239Z" style="fill:white;fill-rule:nonzero;"/>
                    <path d="M343.063,482.346L343.227,482.025C343.509,482.301 344.011,482.504 344.529,482.504C345.268,482.504 345.589,482.194 345.589,481.805C345.589,480.722 343.159,481.388 343.159,479.928C343.159,479.347 343.61,478.845 344.614,478.845C345.06,478.845 345.522,478.975 345.838,479.195L345.697,479.528C345.359,479.308 344.964,479.201 344.614,479.201C343.892,479.201 343.571,479.522 343.571,479.917C343.571,481 346.001,480.346 346.001,481.783C346.001,482.364 345.539,482.86 344.529,482.86C343.937,482.858 343.356,482.65 343.063,482.346Z" style="fill:white;fill-rule:nonzero;"/>
                </g>
            </g>
            <g>
                <g>
                    <rect x="88.623" y="28" width="322.714" height="443.731" style="fill:white;"/>
                    <path d="M173.525,67.597C138.277,50.855 112.953,47.692 103.367,58.841C93.115,70.842 101.973,98.173 127.63,133.697C129.376,128.205 131.466,122.83 133.894,117.603C117.938,94.191 112.641,77.241 118.961,69.808C124.975,62.815 141.019,64.767 164.475,75.338C151.672,87.341 140.634,103.208 133.894,117.603C153.39,146.245 187.095,181.989 226.158,215.449C262.738,246.77 300.7,273.248 331.212,288.724C347.926,276.973 360.096,265.519 370.62,249.632C387.382,273.826 393.052,291.366 386.563,298.948C379.725,306.935 359.903,303.273 331.212,288.724C326.714,291.637 322.046,294.281 317.237,296.643C357.13,317.239 386.185,322.105 396.607,309.933C406.288,298.566 398.886,273.449 376.148,240.504C405.659,183.079 396.627,115.785 347.929,73.704C299.231,31.623 227.206,25.448 173.525,67.597ZM317.238,296.642C285.499,280.256 249.202,255.09 214.723,225.57C179.622,195.506 148.717,162.906 127.631,133.697C111.09,185.706 127.258,242.565 168.689,278.09C210.031,313.438 268.469,320.736 317.238,296.642Z" style="fill-rule:nonzero;"/>
                </g>
                <path d="M167.964,279.745C180.88,267.053 230.597,220.914 233.421,218.026C243.656,207.562 246.447,193.836 227.491,174.04C216.102,162.144 212.507,147.662 209.765,140.927C207.275,134.803 191.968,120.777 179.879,119.218C175.616,118.669 171.97,118.493 168.009,118.197C160.26,117.619 162.486,113.143 164.018,110.795C172.428,97.905 195.555,91.724 209.87,103.269C215.155,107.529 221.544,112.69 228.117,118.931C236.666,127.047 247.479,139.597 256.169,141.725C280.657,147.722 301.283,169.631 309.068,198.822C314.148,217.871 308.572,256.047 296.754,268.991C283.255,283.773 267.419,297.17 248.285,317.776C218.352,328.418 171.437,308.404 167.964,279.745ZM332.939,181.984L346.325,170.664C352.466,165.47 361.589,166.235 366.784,172.374L370.715,177.026C375.909,183.165 375.147,192.29 369.006,197.482L355.62,208.802C349.479,213.994 340.355,213.231 335.161,207.09L331.23,202.441C326.034,196.299 326.799,187.176 332.939,181.984ZM311.563,146.273L340.525,121.783C346.894,116.398 356.355,117.189 361.74,123.557L365.818,128.38C371.204,134.748 370.412,144.209 364.044,149.595L335.082,174.086C328.716,179.471 319.252,178.68 313.867,172.312L309.789,167.489C304.406,161.12 305.198,151.659 311.563,146.273ZM287.407,113.276L316.369,88.785C322.737,83.399 332.198,84.191 337.584,90.559L341.662,95.382C347.045,101.751 346.256,111.212 339.888,116.597L310.926,141.087C304.558,146.472 295.097,145.681 289.711,139.313L285.633,134.49C280.247,128.123 281.038,118.661 287.407,113.276Z" style="fill:white;fill-rule:nonzero;"/>
            </g>
        </g>
    </g>
    <g transform="matrix(1,0,0,1,-35.4331,-5.68434e-14)">
        <text x="60.542px" y="442.598px" style="font-family:'WorkSans-ExtraBold', 'Work Sans';font-weight:800;font-size:83.333px;fill:rgb(2,0,0);">DON’T<tspan x="324.292px 346.959px 398.125px " y="442.598px 442.598px 442.598px "> PA</tspan>NIC</text>
        <g transform="matrix(58.3333,0,0,58.3333,490.425,550.932)">
        </g>
        <text x="170.992px" y="550.932px" style="font-family:'WorkSans-ExtraBold', 'Work Sans';font-weight:800;font-size:58.333px;fill:rgb(2,0,0);">OR<tspan x="254.059px " y="550.932px ">G</tspan>ANIZE!</text>
    </g>
</svg>
