<?xml version="1.0" encoding="UTF-8" standalone="no"?>
<!DOCTYPE svg PUBLIC "-//W3C//DTD SVG 1.1//EN" "http://www.w3.org/Graphics/SVG/1.1/DTD/svg11.dtd">
<svg width="100%" height="100%" viewBox="0 0 1418 1654" version="1.1" xmlns="http://www.w3.org/2000/svg" xmlns:xlink="http://www.w3.org/1999/xlink" xml:space="preserve" xmlns:serif="http://www.serif.com/" style="fill-rule:evenodd;clip-rule:evenodd;stroke-linejoin:round;stroke-miterlimit:2;">
    <g transform="matrix(1,0,0,1,-130.592,22.7278)">
        <g transform="matrix(233.333,0,0,242.667,441.99,508.617)">
            <path d="M0.649,-0.464C0.65,-0.466 0.65,-0.468 0.65,-0.469C0.65,-0.475 0.647,-0.478 0.641,-0.479L0.324,-0.479C0.316,-0.479 0.31,-0.473 0.307,-0.463L0.222,-0.146C0.222,-0.144 0.221,-0.142 0.221,-0.14C0.221,-0.135 0.224,-0.132 0.23,-0.132L0.548,-0.132C0.556,-0.132 0.562,-0.137 0.564,-0.147L0.649,-0.464ZM0.704,-0.122C0.68,-0.034 0.624,0.01 0.535,0.01L0.168,0.01C0.097,0.01 0.062,-0.018 0.062,-0.073C0.062,-0.088 0.064,-0.104 0.069,-0.122L0.167,-0.488C0.191,-0.576 0.247,-0.62 0.337,-0.62L0.703,-0.62C0.774,-0.62 0.81,-0.592 0.81,-0.537C0.81,-0.523 0.807,-0.507 0.802,-0.488L0.704,-0.122Z" style="fill:#97c5c9;fill-rule:nonzero;"/>
        </g>
        <g transform="matrix(233.333,0,0,242.667,616.525,508.617)">
            <path d="M0.625,-0.375L0.691,-0.62L0.837,-0.62L0.669,0.01L0.522,0.01L0.588,-0.234L0.247,-0.234L0.181,0.01L0.034,0.01L0.1,-0.234L-0.005,-0.234L0.117,-0.375L0.137,-0.376L0.203,-0.62L0.349,-0.62L0.284,-0.376L0.625,-0.375Z" style="fill:#97c5c9;fill-rule:nonzero;"/>
        </g>
        <g transform="matrix(233.333,0,0,242.667,896.78,508.617)">
            <path d="M0.625,-0.375L0.691,-0.62L0.837,-0.62L0.669,0.01L0.522,0.01L0.588,-0.234L0.247,-0.234L0.181,0.01L0.034,0.01L0.1,-0.234L-0.005,-0.234L0.117,-0.375L0.137,-0.376L0.203,-0.62L0.349,-0.62L0.284,-0.376L0.625,-0.375Z" style="fill:#97c5c9;fill-rule:nonzero;"/>
        </g>
        <g transform="matrix(233.333,0,0,242.667,1071.32,508.617)">
            <path d="M0.649,-0.465C0.651,-0.469 0.653,-0.472 0.653,-0.474L0.653,-0.475C0.653,-0.477 0.649,-0.479 0.641,-0.479L0.324,-0.479C0.316,-0.479 0.31,-0.474 0.308,-0.464L0.284,-0.376L0.625,-0.376L0.649,-0.465ZM0.669,0.01L0.522,0.01L0.588,-0.234L0.246,-0.235L0.181,0.01L0.034,0.01L0.1,-0.234L-0.005,-0.234L0.117,-0.376L0.137,-0.376L0.167,-0.488C0.191,-0.576 0.248,-0.62 0.337,-0.62L0.704,-0.62C0.774,-0.62 0.81,-0.592 0.81,-0.537C0.81,-0.523 0.807,-0.507 0.802,-0.488L0.669,0.01Z" style="fill:#97c5c9;fill-rule:nonzero;"/>
        </g>
        <g transform="matrix(233.333,0,0,242.667,584.966,876.391)">
            <path d="M0.669,0.01L0.169,0.01C0.098,0.01 0.063,-0.018 0.063,-0.074C0.063,-0.088 0.065,-0.104 0.069,-0.122L0.167,-0.488C0.191,-0.576 0.246,-0.62 0.333,-0.62L0.837,-0.62L0.799,-0.479L0.324,-0.479C0.315,-0.478 0.31,-0.473 0.308,-0.464L0.222,-0.146C0.222,-0.144 0.221,-0.142 0.221,-0.141C0.221,-0.135 0.224,-0.132 0.231,-0.132L0.56,-0.132L0.588,-0.235L0.336,-0.234L0.458,-0.375L0.772,-0.376L0.669,0.01Z" style="fill:#ff66bc;fill-rule:nonzero;"/>
        </g>
        <g transform="matrix(233.333,0,0,242.667,759.501,876.391)">
            <path d="M0.649,-0.465C0.651,-0.469 0.653,-0.472 0.653,-0.474L0.653,-0.475C0.653,-0.477 0.649,-0.479 0.641,-0.479L0.324,-0.479C0.316,-0.479 0.31,-0.474 0.308,-0.464L0.284,-0.376L0.625,-0.376L0.649,-0.465ZM0.669,0.01L0.522,0.01L0.588,-0.234L0.246,-0.235L0.181,0.01L0.034,0.01L0.1,-0.234L-0.005,-0.234L0.117,-0.376L0.137,-0.376L0.167,-0.488C0.191,-0.576 0.248,-0.62 0.337,-0.62L0.704,-0.62C0.774,-0.62 0.81,-0.592 0.81,-0.537C0.81,-0.523 0.807,-0.507 0.802,-0.488L0.669,0.01Z" style="fill:#ff66bc;fill-rule:nonzero;"/>
        </g>
        <g transform="matrix(233.333,0,0,242.667,934.036,876.391)">
            <path d="M0.322,-0.199C0.225,-0.271 0.177,-0.361 0.177,-0.47C0.177,-0.507 0.183,-0.545 0.194,-0.586L0.203,-0.62L0.349,-0.62L0.334,-0.563C0.33,-0.547 0.328,-0.531 0.328,-0.516C0.328,-0.453 0.362,-0.392 0.431,-0.331C0.556,-0.407 0.63,-0.484 0.651,-0.563L0.667,-0.62L0.813,-0.62L0.804,-0.586C0.761,-0.424 0.649,-0.295 0.468,-0.198L0.413,0.01L0.266,0.01L0.322,-0.199Z" style="fill:#ff66bc;fill-rule:nonzero;"/>
        </g>
        <g transform="matrix(233.333,0,0,242.667,331.708,1244.16)">
            <path d="M0.649,-0.463C0.65,-0.466 0.65,-0.469 0.65,-0.471C0.65,-0.476 0.648,-0.479 0.642,-0.479L0.312,-0.479L0.284,-0.375L0.613,-0.375C0.621,-0.376 0.627,-0.381 0.629,-0.391L0.649,-0.463ZM0.77,-0.366C0.746,-0.278 0.69,-0.234 0.6,-0.234L0.246,-0.234L0.181,0.01L0.035,0.01L0.1,-0.235L-0.005,-0.235L0.118,-0.375L0.137,-0.375L0.165,-0.478L0.058,-0.479L0.209,-0.62L0.703,-0.62C0.774,-0.62 0.81,-0.592 0.81,-0.537C0.81,-0.523 0.807,-0.507 0.802,-0.488L0.77,-0.366Z" style="fill:#fff;fill-rule:nonzero;"/>
        </g>
        <g transform="matrix(233.333,0,0,242.667,506.243,1244.16)">
            <path d="M0.608,-0.375L0.485,-0.234L0.247,-0.234L0.219,-0.132L0.707,-0.132L0.669,0.01L0.034,0.01L0.1,-0.234L-0.005,-0.234L0.117,-0.375L0.137,-0.375L0.165,-0.479L0.06,-0.479L0.183,-0.62L0.837,-0.62L0.8,-0.479L0.312,-0.479L0.284,-0.375L0.608,-0.375Z" style="fill:#fff;fill-rule:nonzero;"/>
        </g>
        <g transform="matrix(233.333,0,0,242.667,680.778,1244.16)">
            <path d="M0.649,-0.464C0.65,-0.466 0.65,-0.468 0.65,-0.469C0.65,-0.475 0.647,-0.478 0.641,-0.479L0.324,-0.479C0.316,-0.479 0.31,-0.473 0.307,-0.463L0.222,-0.146C0.222,-0.144 0.221,-0.142 0.221,-0.14C0.221,-0.135 0.224,-0.132 0.23,-0.132L0.548,-0.132C0.556,-0.132 0.562,-0.137 0.564,-0.147L0.649,-0.464ZM0.704,-0.122C0.68,-0.034 0.624,0.01 0.535,0.01L0.168,0.01C0.097,0.01 0.062,-0.018 0.062,-0.073C0.062,-0.088 0.064,-0.104 0.069,-0.122L0.167,-0.488C0.191,-0.576 0.247,-0.62 0.337,-0.62L0.703,-0.62C0.774,-0.62 0.81,-0.592 0.81,-0.537C0.81,-0.523 0.807,-0.507 0.802,-0.488L0.704,-0.122Z" style="fill:#fff;fill-rule:nonzero;"/>
        </g>
        <g transform="matrix(233.333,0,0,242.667,855.313,1244.16)">
            <path d="M0.649,-0.463C0.65,-0.466 0.65,-0.469 0.65,-0.471C0.65,-0.476 0.648,-0.479 0.642,-0.479L0.312,-0.479L0.284,-0.375L0.613,-0.375C0.621,-0.376 0.627,-0.381 0.629,-0.391L0.649,-0.463ZM0.77,-0.366C0.746,-0.278 0.69,-0.234 0.6,-0.234L0.246,-0.234L0.181,0.01L0.035,0.01L0.1,-0.235L-0.005,-0.235L0.118,-0.375L0.137,-0.375L0.165,-0.478L0.058,-0.479L0.209,-0.62L0.703,-0.62C0.774,-0.62 0.81,-0.592 0.81,-0.537C0.81,-0.523 0.807,-0.507 0.802,-0.488L0.77,-0.366Z" style="fill:#fff;fill-rule:nonzero;"/>
        </g>
        <g transform="matrix(233.333,0,0,242.667,1029.85,1244.16)">
            <path d="M0.219,-0.132L0.609,-0.132L0.571,0.01L0.034,0.01L0.165,-0.479L0.061,-0.479L0.174,-0.62L0.349,-0.62L0.219,-0.132Z" style="fill:#fff;fill-rule:nonzero;"/>
        </g>
        <g transform="matrix(233.333,0,0,242.667,1181.6,1244.16)">
            <path d="M0.608,-0.375L0.485,-0.234L0.247,-0.234L0.219,-0.132L0.707,-0.132L0.669,0.01L0.034,0.01L0.1,-0.234L-0.005,-0.234L0.117,-0.375L0.137,-0.375L0.165,-0.479L0.06,-0.479L0.183,-0.62L0.837,-0.62L0.8,-0.479L0.312,-0.479L0.284,-0.375L0.608,-0.375Z" style="fill:#fff;fill-rule:nonzero;"/>
        </g>
    </g>
    <g id="flag-36423.svg" transform="matrix(1.8241,0,0,0.492126,708.661,177.165)">
        <g transform="matrix(1,0,0,1,-388.5,-240)">
            <rect x="0" y="0" width="777" height="99" style="fill:#f00000;fill-rule:nonzero;"/>
            <rect x="0" y="80" width="777" height="99" style="fill:#ff8000;fill-rule:nonzero;"/>
            <rect x="0" y="160" width="777" height="99" style="fill:#ff0;fill-rule:nonzero;"/>
            <rect x="0" y="240" width="777" height="99" style="fill:#007940;fill-rule:nonzero;"/>
            <rect x="0" y="320" width="777" height="99" style="fill:#4040ff;fill-rule:nonzero;"/>
            <rect x="0" y="400" width="777" height="80" style="fill:#a000c0;fill-rule:nonzero;"/>
        </g>
    </g>
    <g id="flag-36423.svg1" serif:id="flag-36423.svg" transform="matrix(1.8241,0,0,0.492126,708.661,1476.38)">
        <g transform="matrix(1,0,0,1,-388.5,-240)">
            <rect x="0" y="0" width="777" height="99" style="fill:#f00000;fill-rule:nonzero;"/>
            <rect x="0" y="80" width="777" height="99" style="fill:#ff8000;fill-rule:nonzero;"/>
            <rect x="0" y="160" width="777" height="99" style="fill:#ff0;fill-rule:nonzero;"/>
            <rect x="0" y="240" width="777" height="99" style="fill:#007940;fill-rule:nonzero;"/>
            <rect x="0" y="320" width="777" height="99" style="fill:#4040ff;fill-rule:nonzero;"/>
            <rect x="0" y="400" width="777" height="80" style="fill:#a000c0;fill-rule:nonzero;"/>
        </g>
    </g>
</svg>
